<svg width="20" height="20" viewBox="0 0 20 20" fill="none" xmlns="http://www.w3.org/2000/svg">
<path d="M17.4995 9.53222C17.4995 13.416 14.1414 16.5644 9.99951 16.5644C9.25668 16.5655 8.51694 16.4622 7.7992 16.257C7.2517 16.5544 5.99451 17.125 3.87951 17.4967C3.69201 17.5288 3.54951 17.3199 3.62357 17.133C3.95545 16.2932 4.25545 15.1741 4.34545 14.1534C3.19701 12.9177 2.49951 11.3003 2.49951 9.53222C2.49951 5.64842 5.85764 2.5 9.99951 2.5C14.1414 2.5 17.4995 5.64842 17.4995 9.53222ZM7.18701 9.53222C7.18701 9.26578 7.08824 9.01025 6.91242 8.82185C6.73661 8.63346 6.49815 8.52761 6.24951 8.52761C6.00087 8.52761 5.76241 8.63346 5.5866 8.82185C5.41078 9.01025 5.31201 9.26578 5.31201 9.53222C5.31201 9.79865 5.41078 10.0542 5.5866 10.2426C5.76241 10.431 6.00087 10.5368 6.24951 10.5368C6.49815 10.5368 6.73661 10.431 6.91242 10.2426C7.08824 10.0542 7.18701 9.79865 7.18701 9.53222ZM10.937 9.53222C10.937 9.26578 10.8382 9.01025 10.6624 8.82185C10.4866 8.63346 10.2482 8.52761 9.99951 8.52761C9.75087 8.52761 9.51241 8.63346 9.3366 8.82185C9.16078 9.01025 9.06201 9.26578 9.06201 9.53222C9.06201 9.79865 9.16078 10.0542 9.3366 10.2426C9.51241 10.431 9.75087 10.5368 9.99951 10.5368C10.2482 10.5368 10.4866 10.431 10.6624 10.2426C10.8382 10.0542 10.937 9.79865 10.937 9.53222ZM13.7495 10.5368C13.9982 10.5368 14.2366 10.431 14.4124 10.2426C14.5882 10.0542 14.687 9.79865 14.687 9.53222C14.687 9.26578 14.5882 9.01025 14.4124 8.82185C14.2366 8.63346 13.9982 8.52761 13.7495 8.52761C13.5009 8.52761 13.2624 8.63346 13.0866 8.82185C12.9108 9.01025 12.812 9.26578 12.812 9.53222C12.812 9.79865 12.9108 10.0542 13.0866 10.2426C13.2624 10.431 13.5009 10.5368 13.7495 10.5368Z" fill="#B0B9C2"/>
</svg>
