<svg width="30" height="30" viewBox="0 0 30 30" fill="none" xmlns="http://www.w3.org/2000/svg">
<path d="M15 0C23.2863 0 30 6.71371 30 15C30 23.2863 23.2863 30 15 30C6.71371 30 0 23.2863 0 15C0 6.71371 6.71371 0 15 0ZM21.8891 13.9718L13.6935 5.77621C13.125 5.20766 12.2056 5.20766 11.6431 5.77621L10.6149 6.80444C10.0464 7.37298 10.0464 8.29234 10.6149 8.85484L16.7601 15L10.6149 21.1452C10.0464 21.7137 10.0464 22.6331 10.6149 23.1956L11.6431 24.2238C12.2117 24.7923 13.131 24.7923 13.6935 24.2238L21.8891 16.0282C22.4577 15.4597 22.4577 14.5403 21.8891 13.9718Z" fill="#F3F4F6" fill-opacity="0.5"/>
</svg>
