<svg width="30" height="30" viewBox="0 0 30 30" fill="none" xmlns="http://www.w3.org/2000/svg">
<path d="M15 30C6.71371 30 8.9407e-07 23.2863 8.9407e-07 15C8.9407e-07 6.71371 6.71371 8.9407e-07 15 8.9407e-07C23.2863 8.9407e-07 30 6.71371 30 15C30 23.2863 23.2863 30 15 30ZM8.11089 16.0282L16.3065 24.2238C16.875 24.7923 17.7944 24.7923 18.3569 24.2238L19.3851 23.1956C19.9536 22.627 19.9536 21.7077 19.3851 21.1452L13.2399 15L19.3851 8.85484C19.9536 8.28629 19.9536 7.36694 19.3851 6.80444L18.3569 5.77621C17.7883 5.20766 16.869 5.20766 16.3065 5.77621L8.11089 13.9718C7.54234 14.5403 7.54234 15.4597 8.11089 16.0282Z" fill="#F3F4F6" fill-opacity="0.5"/>
</svg>
