<svg width="40" height="40" viewBox="0 0 40 40" fill="none" xmlns="http://www.w3.org/2000/svg">
<path d="M21.7175 5.63024C21.2533 5.22551 20.6388 5 20 5C19.3612 5 18.7467 5.22551 18.2825 5.63024L6.1725 16.1856C5.80171 16.5093 5.50646 16.8993 5.30484 17.3318C5.10323 17.7644 4.9995 18.2303 5 18.7011V31.5438C5.00066 32.4606 5.39605 33.3397 6.09923 33.9878C6.80242 34.6359 7.75587 35 8.75 35H12.5C13.4946 35 14.4484 34.6356 15.1517 33.987C15.8549 33.3384 16.25 32.4587 16.25 31.5415V25.7773C16.25 25.4715 16.3817 25.1783 16.6161 24.9621C16.8505 24.7459 17.1685 24.6244 17.5 24.6244H22.5C22.8315 24.6244 23.1495 24.7459 23.3839 24.9621C23.6183 25.1783 23.75 25.4715 23.75 25.7773V31.5415C23.75 32.4587 24.1451 33.3384 24.8483 33.987C25.5516 34.6356 26.5054 35 27.5 35H31.25C32.2446 35 33.1984 34.6356 33.9017 33.987C34.6049 33.3384 35 32.4587 35 31.5415V18.6988C34.9998 18.2282 34.8956 17.7626 34.6935 17.3305C34.4915 16.8984 34.1959 16.5088 33.825 16.1856L21.7175 5.62563V5.63024Z" fill="white"/>
</svg>
