<svg width="40" height="40" viewBox="0 0 40 40" fill="none" xmlns="http://www.w3.org/2000/svg">
<g clip-path="url(#clip0_307_305)">
<path d="M20.3125 35C22.727 35 24.6855 33.0415 24.6855 30.625H15.9396C15.9396 33.0415 17.8981 35 20.3125 35ZM35.0365 24.7659C33.7158 23.3468 31.2446 21.2119 31.2446 14.2188C31.2446 8.90723 27.5204 4.65527 22.4987 3.61211V2.1875C22.4987 0.97959 21.5198 0 20.3125 0C19.1053 0 18.1264 0.97959 18.1264 2.1875V3.61211C13.1047 4.65527 9.38052 8.90723 9.38052 14.2188C9.38052 21.2119 6.90932 23.3468 5.58862 24.7659C5.17847 25.2068 4.99663 25.7339 5.00005 26.25C5.00757 27.3711 5.88735 28.4375 7.19438 28.4375H33.4307C34.7377 28.4375 35.6182 27.3711 35.625 26.25C35.6285 25.7339 35.4466 25.2062 35.0365 24.7659Z" fill="white"/>
</g>
<defs>
<clipPath id="clip0_307_305">
<rect width="40" height="40" fill="white"/>
</clipPath>
</defs>
</svg>
