<svg width="40" height="40" viewBox="0 0 40 40" fill="none" xmlns="http://www.w3.org/2000/svg">
<path d="M8.88885 33.3333C8.88885 33.3333 6.66663 33.3333 6.66663 31.1111C6.66663 28.8889 8.88885 22.2222 20 22.2222C31.1111 22.2222 33.3333 28.8889 33.3333 31.1111C33.3333 33.3333 31.1111 33.3333 31.1111 33.3333H8.88885ZM20 20C21.7681 20 23.4638 19.2976 24.714 18.0474C25.9642 16.7971 26.6666 15.1014 26.6666 13.3333C26.6666 11.5652 25.9642 9.86952 24.714 8.61928C23.4638 7.36904 21.7681 6.66666 20 6.66666C18.2318 6.66666 16.5362 7.36904 15.2859 8.61928C14.0357 9.86952 13.3333 11.5652 13.3333 13.3333C13.3333 15.1014 14.0357 16.7971 15.2859 18.0474C16.5362 19.2976 18.2318 20 20 20Z" fill="#505863"/>
</svg>
