<svg width="40" height="40" viewBox="0 0 40 40" fill="none" xmlns="http://www.w3.org/2000/svg">
<path d="M8.88897 33.3334C8.88897 33.3334 6.66675 33.3334 6.66675 31.1111C6.66675 28.8889 8.88897 22.2222 20.0001 22.2222C31.1112 22.2222 33.3334 28.8889 33.3334 31.1111C33.3334 33.3334 31.1112 33.3334 31.1112 33.3334H8.88897ZM20.0001 20C21.7682 20 23.4639 19.2976 24.7141 18.0474C25.9644 16.7972 26.6667 15.1015 26.6667 13.3334C26.6667 11.5652 25.9644 9.86955 24.7141 8.61931C23.4639 7.36907 21.7682 6.66669 20.0001 6.66669C18.232 6.66669 16.5363 7.36907 15.286 8.61931C14.0358 9.86955 13.3334 11.5652 13.3334 13.3334C13.3334 15.1015 14.0358 16.7972 15.286 18.0474C16.5363 19.2976 18.232 20 20.0001 20Z" fill="white"/>
</svg>
