<svg width="40" height="40" viewBox="0 0 40 40" fill="none" xmlns="http://www.w3.org/2000/svg">
<path d="M9.68121 20.5281V12.2465H6.50723C5.66544 12.2465 4.85813 12.5737 4.26289 13.1561C3.66765 13.7385 3.33325 14.5284 3.33325 15.3521V33.9858C3.33483 34.1781 3.39109 34.3661 3.49573 34.5288C3.60038 34.6915 3.74927 34.8225 3.92573 34.9071C4.09573 34.9828 4.28316 35.013 4.46898 34.9949C4.6548 34.9767 4.8324 34.9107 4.98372 34.8036L10.4324 30.8802H24.6518C25.0528 30.8918 25.452 30.8227 25.8246 30.6772C26.1971 30.5317 26.5353 30.313 26.8179 30.0345C27.1006 29.7559 27.3218 29.4236 27.4679 29.058C27.614 28.6924 27.6818 28.3014 27.6671 27.9091V26.7394H16.0292C14.3456 26.7394 12.731 26.085 11.5405 24.9201C10.35 23.7553 9.68121 22.1754 9.68121 20.5281Z" fill="#505863"/>
<path d="M34.0151 5H16.0292C15.1874 5 14.3801 5.3272 13.7848 5.90962C13.1896 6.49203 12.8552 7.28196 12.8552 8.10562V20.5281C12.8552 21.3518 13.1896 22.1417 13.7848 22.7241C14.3801 23.3065 15.1874 23.6337 16.0292 23.6337H30.365L35.4222 27.4743C35.5725 27.5831 35.7496 27.6509 35.9355 27.6709C36.1213 27.6909 36.3093 27.6624 36.4802 27.5882C36.6602 27.5043 36.8124 27.3723 36.9191 27.2075C37.0258 27.0426 37.0827 26.8516 37.0832 26.6565V8.10562C37.0837 7.29958 36.7639 6.52495 36.1913 5.94542C35.6188 5.36589 34.8384 5.02687 34.0151 5Z" fill="#505863"/>
</svg>
