<svg width="35" height="30" viewBox="0 0 35 30" fill="none" xmlns="http://www.w3.org/2000/svg">
<path d="M6.68133 15.5281V7.24646H3.50735C2.66556 7.24646 1.85825 7.57365 1.26301 8.15607C0.667775 8.73849 0.333374 9.52841 0.333374 10.3521V28.9858C0.334949 29.1781 0.391211 29.3661 0.495857 29.5288C0.600502 29.6915 0.749395 29.8225 0.92585 29.9071C1.09585 29.9828 1.28328 30.013 1.4691 29.9949C1.65493 29.9767 1.83252 29.9107 1.98384 29.8036L7.43251 25.8802H21.6519C22.0529 25.8918 22.4521 25.8227 22.8247 25.6772C23.1973 25.5317 23.5354 25.313 23.818 25.0345C24.1007 24.7559 24.3219 24.4236 24.468 24.058C24.6141 23.6924 24.6819 23.3014 24.6672 22.9091V21.7394H13.0293C11.3457 21.7394 9.73108 21.085 8.54061 19.9201C7.35014 18.7553 6.68133 17.1754 6.68133 15.5281Z" fill="white"/>
<path d="M31.0152 0H13.0293C12.1875 0 11.3802 0.327198 10.785 0.909615C10.1897 1.49203 9.85531 2.28196 9.85531 3.10562V15.5281C9.85531 16.3518 10.1897 17.1417 10.785 17.7241C11.3802 18.3065 12.1875 18.6337 13.0293 18.6337H27.3651L32.4223 22.4743C32.5727 22.5831 32.7498 22.6509 32.9356 22.6709C33.1215 22.6909 33.3094 22.6624 33.4803 22.5882C33.6603 22.5043 33.8125 22.3723 33.9192 22.2075C34.0259 22.0426 34.0828 21.8516 34.0834 21.6565V3.10562C34.0838 2.29958 33.764 1.52495 33.1914 0.94542C32.6189 0.365889 31.8385 0.0268677 31.0152 0Z" fill="white"/>
</svg>
