<svg width="34" height="30" viewBox="0 0 34 30" fill="none" xmlns="http://www.w3.org/2000/svg">
<path d="M32 15.3667C32 6.21667 24.9 0 17 0C9.18337 0 2.00004 6.08333 2.00004 15.4667C1.00004 16.0333 0.333374 17.1 0.333374 18.3333V21.6667C0.333374 23.5 1.83337 25 3.66671 25H5.33337V14.8333C5.33337 8.38333 10.55 3.16667 17 3.16667C23.45 3.16667 28.6667 8.38333 28.6667 14.8333V26.6667H15.3334V30H28.6667C30.5 30 32 28.5 32 26.6667V24.6333C32.9834 24.1167 33.6667 23.1 33.6667 21.9V18.0667C33.6667 16.9 32.9834 15.8833 32 15.3667Z" fill="#505863"/>
<path d="M12 18.3333C12.9205 18.3333 13.6667 17.5871 13.6667 16.6667C13.6667 15.7462 12.9205 15 12 15C11.0796 15 10.3334 15.7462 10.3334 16.6667C10.3334 17.5871 11.0796 18.3333 12 18.3333Z" fill="#505863"/>
<path d="M22 18.3333C22.9205 18.3333 23.6667 17.5871 23.6667 16.6667C23.6667 15.7462 22.9205 15 22 15C21.0796 15 20.3334 15.7462 20.3334 16.6667C20.3334 17.5871 21.0796 18.3333 22 18.3333Z" fill="#505863"/>
<path d="M27 13.3833C26.2 8.63333 22.0667 5 17.0834 5C12.0334 5 6.60003 9.18333 7.03336 15.75C11.15 14.0667 14.25 10.4 15.1334 5.93333C17.3167 10.3167 21.8 13.3333 27 13.3833Z" fill="#505863"/>
</svg>
