<svg width="40" height="40" viewBox="0 0 40 40" fill="none" xmlns="http://www.w3.org/2000/svg">
<path d="M35 20.3667C35 11.2167 27.9 5 20 5C12.1834 5 5.00004 11.0833 5.00004 20.4667C4.00004 21.0333 3.33337 22.1 3.33337 23.3333V26.6667C3.33337 28.5 4.83337 30 6.66671 30H8.33337V19.8333C8.33337 13.3833 13.55 8.16667 20 8.16667C26.45 8.16667 31.6667 13.3833 31.6667 19.8333V31.6667H18.3334V35H31.6667C33.5 35 35 33.5 35 31.6667V29.6333C35.9834 29.1167 36.6667 28.1 36.6667 26.9V23.0667C36.6667 21.9 35.9834 20.8833 35 20.3667Z" fill="white"/>
<path d="M15 23.3333C15.9205 23.3333 16.6667 22.5871 16.6667 21.6667C16.6667 20.7462 15.9205 20 15 20C14.0796 20 13.3334 20.7462 13.3334 21.6667C13.3334 22.5871 14.0796 23.3333 15 23.3333Z" fill="white"/>
<path d="M25 23.3333C25.9205 23.3333 26.6667 22.5871 26.6667 21.6667C26.6667 20.7462 25.9205 20 25 20C24.0796 20 23.3334 20.7462 23.3334 21.6667C23.3334 22.5871 24.0796 23.3333 25 23.3333Z" fill="white"/>
<path d="M30 18.3833C29.2 13.6333 25.0667 10 20.0834 10C15.0334 10 9.60003 14.1833 10.0334 20.75C14.15 19.0667 17.25 15.4 18.1334 10.9333C20.3167 15.3167 24.8 18.3333 30 18.3833Z" fill="white"/>
</svg>
