<svg width="260" height="29" viewBox="0 0 260 29" fill="none" xmlns="http://www.w3.org/2000/svg">
<path d="M25.2451 12.4691L35.7697 6.39991L25.2451 0.330688V4.79404H15.9028V7.98215H25.2451V12.4691Z" fill="white"/>
<path d="M5.95774 0.330994L0 11.0525H4.40455V28.6698H7.5341V11.0525H11.9155L5.95774 0.330994Z" fill="white"/>
<path d="M25.2451 20.9944H15.9028V24.1825H25.2451V28.6694L35.7697 22.6002L25.2451 16.5074V20.9944Z" fill="white"/>
<path d="M182.696 27.1107C180.447 25.8591 178.686 24.1116 177.387 21.9153C176.089 19.7191 175.463 17.2394 175.463 14.5C175.463 11.7842 176.112 9.30456 177.387 7.08469C178.662 4.86482 180.447 3.14088 182.696 1.88925C184.945 0.637622 187.472 0 190.277 0C193.058 0 195.585 0.637622 197.834 1.88925C200.082 3.14088 201.844 4.86482 203.119 7.06107C204.394 9.25733 205.02 11.737 205.02 14.5C205.02 17.263 204.394 19.7191 203.119 21.9389C201.844 24.1352 200.082 25.8591 197.834 27.1107C195.585 28.3624 193.058 29 190.277 29C187.472 28.9764 184.945 28.3624 182.696 27.1107ZM195.794 23.9699C197.417 23.0252 198.715 21.7264 199.642 20.0733C200.592 18.4202 201.056 16.5546 201.056 14.5C201.056 12.4454 200.592 10.6034 199.642 8.92671C198.692 7.27362 197.417 5.97476 195.794 5.03013C194.171 4.0855 192.34 3.61319 190.3 3.61319C188.26 3.61319 186.405 4.0855 184.759 5.03013C183.113 5.97476 181.815 7.27362 180.865 8.92671C179.914 10.5798 179.451 12.4454 179.451 14.5C179.451 16.5546 179.914 18.3966 180.865 20.0733C181.815 21.7264 183.113 23.0252 184.759 23.9699C186.405 24.9145 188.26 25.3868 190.3 25.3868C192.317 25.3868 194.171 24.9145 195.794 23.9699Z" fill="white"/>
<path d="M61.0612 21.5849H46.2712L43.2112 28.6696H39.108L51.6958 0.330872H55.6367L68.2708 28.6696H64.0981L61.0612 21.5849ZM59.6703 18.3496L53.6662 4.46361L47.6621 18.3496H59.6703Z" fill="white"/>
<path d="M93.8171 16.4602C94.7443 17.6646 95.208 19.176 95.208 21.018C95.208 23.474 94.3039 25.3633 92.4957 26.6857C90.6875 28.0082 88.0448 28.6695 84.5675 28.6695H71.5625V0.330688H83.7561C86.9321 0.330688 89.3893 0.968311 91.128 2.26717C92.8666 3.56603 93.7243 5.36082 93.7243 7.65154C93.7243 9.13932 93.3766 10.4146 92.7043 11.5009C92.0321 12.5872 91.128 13.4138 89.9921 13.9805C91.6148 14.4292 92.8898 15.2558 93.8171 16.4602ZM75.5498 3.61326V12.6817H83.4084C85.4484 12.6817 87.0248 12.3038 88.1143 11.5245C89.2039 10.7452 89.7602 9.63525 89.7602 8.14746C89.7602 6.65968 89.2039 5.52613 88.1143 4.77043C87.0248 3.99111 85.4484 3.61326 83.4084 3.61326H75.5498V3.61326ZM89.4821 24.2533C90.618 23.4976 91.1975 22.3168 91.1975 20.6874C91.1975 17.5229 88.9257 15.9406 84.4052 15.9406H75.5498V25.3633H84.4052C86.6539 25.3869 88.3462 25.009 89.4821 24.2533Z" fill="white"/>
<path d="M171.105 16.4602C172.032 17.6646 172.496 19.176 172.496 21.018C172.496 23.474 171.592 25.3633 169.784 26.6857C167.976 28.0082 165.333 28.6695 161.856 28.6695H148.851V0.330688H161.044C164.22 0.330688 166.677 0.968311 168.416 2.26717C170.155 3.56603 171.012 5.36082 171.012 7.65154C171.012 9.13932 170.665 10.4146 169.992 11.5009C169.32 12.5872 168.416 13.4138 167.28 13.9805C168.926 14.4292 170.178 15.2558 171.105 16.4602ZM152.838 3.61326V12.6817H160.697C162.737 12.6817 164.313 12.3038 165.402 11.5245C166.492 10.7452 167.048 9.63525 167.048 8.14746C167.048 6.65968 166.492 5.52613 165.402 4.77043C164.313 3.99111 162.737 3.61326 160.697 3.61326H152.838V3.61326ZM166.793 24.2533C167.929 23.4976 168.509 22.3168 168.509 20.6874C168.509 17.5229 166.237 15.9406 161.717 15.9406H152.861V25.3633H161.717C163.942 25.3869 165.634 25.009 166.793 24.2533Z" fill="white"/>
<path d="M99.1951 0.330688H103.159V25.1507H120.059V28.6695H99.1951V0.330688Z" fill="white"/>
<path d="M144.887 25.1507V28.6695H124.023V0.330688H144.887V3.84942H127.987V12.5636H143.496V16.0115H127.987V25.1507H144.887Z" fill="white"/>
<path d="M208.683 0.330688H218.698C221.642 0.330688 224.238 0.921079 226.533 2.10186C228.805 3.28264 230.59 4.95935 231.842 7.10838C233.094 9.2574 233.72 11.7134 233.72 14.5001C233.72 17.2867 233.094 19.7427 231.842 21.8918C230.59 24.0408 228.805 25.6939 226.533 26.8983C224.261 28.0791 221.642 28.6695 218.698 28.6695H208.683V0.330688ZM218.466 25.1507C220.714 25.1507 222.708 24.702 224.4 23.8046C226.116 22.9072 227.437 21.6556 228.364 20.0497C229.292 18.4439 229.755 16.5782 229.755 14.4765C229.755 12.3747 229.292 10.509 228.364 8.90317C227.437 7.2973 226.116 6.04567 224.4 5.14828C222.685 4.25088 220.714 3.80219 218.466 3.80219H212.67V25.1035H218.466V25.1507Z" fill="white"/>
<path d="M248.695 18.8689V28.6694H244.754V18.7744L233.696 0.307007H237.939L246.84 15.2557L255.789 0.307007H259.73L248.695 18.8689Z" fill="white"/>
</svg>
