<svg width="601" height="67" viewBox="0 0 601 67" fill="none" xmlns="http://www.w3.org/2000/svg">
<path d="M58.325 28.8079L82.6403 14.786L58.325 0.763977V11.0759H36.7411V18.4415H58.325V28.8079Z" fill="#0069FF"/>
<path d="M13.7644 0.764252L0 25.5346H10.176V66.2366H17.4064V25.5346H27.5288L13.7644 0.764252Z" fill="#0069FF"/>
<path d="M58.325 48.5042H36.7411V55.8698H58.325V66.2363L82.6403 52.2143L58.325 38.1378V48.5042Z" fill="#0069FF"/>
<path d="M422.091 62.6352C416.896 59.7435 412.825 55.706 409.826 50.6319C406.827 45.5578 405.381 39.829 405.381 33.5C405.381 27.2256 406.88 21.4967 409.826 16.3681C412.772 11.2394 416.896 7.25652 422.091 4.36482C427.286 1.47313 433.124 0 439.604 0C446.031 0 451.869 1.47313 457.064 4.36482C462.26 7.25652 466.33 11.2394 469.276 16.3135C472.221 21.3876 473.667 27.1165 473.667 33.5C473.667 39.8836 472.221 45.5578 469.276 50.6865C466.33 55.7606 462.26 59.7435 457.064 62.6352C451.869 65.5269 446.031 67 439.604 67C433.124 66.9454 427.286 65.5269 422.091 62.6352ZM452.351 55.3787C456.1 53.1963 459.1 50.1954 461.242 46.3762C463.438 42.557 464.509 38.2467 464.509 33.5C464.509 28.7533 463.438 24.4976 461.242 20.6238C459.046 16.8046 456.1 13.8037 452.351 11.6213C448.602 9.43892 444.371 8.34772 439.658 8.34772C434.945 8.34772 430.66 9.43892 426.858 11.6213C423.055 13.8037 420.056 16.8046 417.86 20.6238C415.664 24.443 414.593 28.7533 414.593 33.5C414.593 38.2467 415.664 42.5024 417.86 46.3762C420.056 50.1954 423.055 53.1963 426.858 55.3787C430.66 57.5611 434.945 58.6523 439.658 58.6523C444.318 58.6523 448.602 57.5611 452.351 55.3787Z" fill="#0069FF"/>
<path d="M141.072 49.8687H106.902L99.8325 66.2368H90.3527L119.435 0.764435H128.54L157.729 66.2368H148.088L141.072 49.8687ZM137.859 42.3939L123.987 10.3125L110.116 42.3939H137.859Z" fill="#0069FF"/>
<path d="M216.75 38.0286C218.892 40.8112 219.963 44.3031 219.963 48.5588C219.963 54.233 217.874 58.5979 213.697 61.6532C209.519 64.7086 203.414 66.2363 195.38 66.2363H165.334V0.763977H193.505C200.843 0.763977 206.52 2.2371 210.537 5.23792C214.554 8.23873 216.535 12.3853 216.535 17.6777C216.535 21.115 215.732 24.0612 214.179 26.571C212.626 29.0808 210.537 30.9904 207.913 32.2998C211.662 33.3365 214.607 35.2461 216.75 38.0286ZM174.546 8.34785V29.299H192.702C197.415 29.299 201.057 28.426 203.574 26.6255C206.092 24.8251 207.377 22.2607 207.377 18.8234C207.377 15.3861 206.092 12.7672 203.574 11.0213C201.057 9.22082 197.415 8.34785 192.702 8.34785H174.546ZM206.734 56.0335C209.359 54.2876 210.698 51.5596 210.698 47.7949C210.698 40.4839 205.449 36.8283 195.005 36.8283H174.546V58.5979H195.005C200.2 58.6524 204.11 57.7795 206.734 56.0335Z" fill="#0069FF"/>
<path d="M395.312 38.0286C397.454 40.8112 398.525 44.3031 398.525 48.5588C398.525 54.233 396.436 58.5979 392.259 61.6532C388.081 64.7086 381.976 66.2363 373.942 66.2363H343.896V0.763977H372.067C379.405 0.763977 385.082 2.2371 389.099 5.23792C393.116 8.23873 395.097 12.3853 395.097 17.6777C395.097 21.115 394.294 24.0612 392.741 26.571C391.188 29.0808 389.099 30.9904 386.475 32.2998C390.277 33.3365 393.169 35.2461 395.312 38.0286ZM353.108 8.34785V29.299H371.264C375.977 29.299 379.619 28.426 382.136 26.6255C384.654 24.8251 385.939 22.2607 385.939 18.8234C385.939 15.3861 384.654 12.7672 382.136 11.0213C379.619 9.22082 375.977 8.34785 371.264 8.34785H353.108ZM385.35 56.0335C387.974 54.2876 389.313 51.5596 389.313 47.7949C389.313 40.4839 384.064 36.8283 373.621 36.8283H353.161V58.5979H373.621C378.762 58.6524 382.672 57.7795 385.35 56.0335Z" fill="#0069FF"/>
<path d="M229.175 0.763977H238.333V58.1068H277.377V66.2363H229.175V0.763977Z" fill="#0069FF"/>
<path d="M334.738 58.1068V66.2363H286.536V0.763977H334.738V8.89346H295.694V29.0262H331.524V36.992H295.694V58.1068H334.738Z" fill="#0069FF"/>
<path d="M482.13 0.763977H505.267C512.069 0.763977 518.067 2.12798 523.369 4.856C528.618 7.58401 532.742 11.4578 535.634 16.4228C538.526 21.3878 539.972 27.062 539.972 33.5001C539.972 39.9382 538.526 45.6125 535.634 50.5775C532.742 55.5425 528.618 59.3617 523.369 62.1443C518.121 64.8723 512.069 66.2363 505.267 66.2363H482.13V0.763977ZM504.731 58.1068C509.926 58.1068 514.532 57.0702 518.442 54.9969C522.405 52.9236 525.458 50.0319 527.6 46.3218C529.743 42.6117 530.814 38.3014 530.814 33.4456C530.814 28.5897 529.743 24.2795 527.6 20.5694C525.458 16.8593 522.405 13.9676 518.442 11.8943C514.479 9.82098 509.926 8.78434 504.731 8.78434H491.342V57.9977H504.731V58.1068Z" fill="#0069FF"/>
<path d="M574.571 43.5936V66.2361H565.466V43.3753L539.919 0.709229H549.72L570.286 35.2459L590.96 0.709229H600.065L574.571 43.5936Z" fill="#0069FF"/>
</svg>
